<?xml version="1.0" ?><svg viewBox="0 0 64 64" xmlns="http://www.w3.org/2000/svg"><title/><g data-name="Layer 8" id="Layer_8"><path d="M44.765,30.733l-10.353-2.07A3.009,3.009,0,0,1,32,25.721V15a3,3,0,0,1,2.408-2.94l4.523,9.154A4.967,4.967,0,0,0,43.413,24h1.515a1,1,0,0,0,.9-1.443L40.609,12H41a3,3,0,0,0,3-3V5a3,3,0,0,0-3-3H39.131A44.276,44.276,0,0,0,15.8,1.2,4.95,4.95,0,0,0,12,6.061V7a5.006,5.006,0,0,0,5,5,1,1,0,0,1,1,1v9.837l-1.306,3.919A13.476,13.476,0,0,0,16,31.032V33a1,1,0,0,0,2,0V31.032a11.5,11.5,0,0,1,.591-3.643L19.721,24H30v1.721a5.013,5.013,0,0,0,4.019,4.9l10.354,2.07A7.02,7.02,0,0,1,50,39.559V59a3,3,0,0,1-3,3H21a3,3,0,0,1-3-3V37a1,1,0,0,0-2,0V59a5.006,5.006,0,0,0,5,5H47a5.006,5.006,0,0,0,5-5V39.559A9.024,9.024,0,0,0,44.765,30.733Zm-4.041-10.4L36.609,12h1.77l4.939,10A2.982,2.982,0,0,1,40.724,20.329ZM42,5V9a1,1,0,0,1-1,1H40V4h1A1,1,0,0,1,42,5ZM17,10a3,3,0,0,1-3-3V6.061a3,3,0,0,1,2.259-2.912A42.255,42.255,0,0,1,38,3.745V10H35c-.013,0-.025,0-.038,0l-.05.005A5,5,0,0,0,30,15v1H20V13A3,3,0,0,0,17,10Zm9,8v4H24V18Zm-6,0h2v4H20Zm8,4V18h2v4Z"/><path d="M45,43a1,1,0,0,0,1-1V39a3,3,0,0,0-3-3H25a3,3,0,0,0-3,3V57a3,3,0,0,0,3,3H43a3,3,0,0,0,3-3V46a1,1,0,0,0-2,0V57a1,1,0,0,1-1,1H25a1,1,0,0,1-1-1V39a1,1,0,0,1,1-1H43a1,1,0,0,1,1,1v3A1,1,0,0,0,45,43Z"/><path d="M32,54h4a1,1,0,0,0,1-1V51h2a1,1,0,0,0,1-1V46a1,1,0,0,0-1-1H37V43a1,1,0,0,0-1-1H32a1,1,0,0,0-1,1v2H29a1,1,0,0,0-1,1v4a1,1,0,0,0,1,1h2v2A1,1,0,0,0,32,54Zm-2-5V47h2a1,1,0,0,0,1-1V44h2v2a1,1,0,0,0,1,1h2v2H36a1,1,0,0,0-1,1v2H33V50a1,1,0,0,0-1-1Z"/></g></svg>